<svg width="1920" height="480" viewBox="0 0 1920 480" fill="none" xmlns="http://www.w3.org/2000/svg">
<rect width="1920" height="480" rx="50" fill="#131313"/>
<path d="M663.935 167.601C671.763 167.601 679.258 168.994 686.422 171.78C693.719 174.433 699.822 178.015 704.73 182.526C709.772 187.037 712.757 191.879 713.685 197.053C714.349 200.502 713.884 204.35 712.292 208.595C710.7 212.708 708.18 216.356 704.73 219.54C701.281 222.591 697.102 224.25 692.193 224.515C690.469 224.515 688.28 224.316 685.626 223.918C682.973 223.52 680.386 222.724 677.865 221.53C675.477 220.336 673.554 218.611 672.094 216.356C674.084 215.295 675.411 214.167 676.074 212.973C676.738 211.779 676.937 210.585 676.671 209.391C676.141 206.738 674.549 204.549 671.895 202.824C669.375 201.099 666.257 200.038 662.542 199.64C660.42 199.375 657.965 199.441 655.179 199.839C652.393 200.104 649.806 201.033 647.418 202.625C645.163 204.084 643.571 206.539 642.642 209.988C642.112 211.978 642.178 214.167 642.841 216.555C643.637 218.81 645.495 220.999 648.413 223.122C651.332 225.112 655.776 226.837 661.746 228.296C670.9 230.419 679.391 232.74 687.218 235.261C695.178 237.782 702.143 240.899 708.113 244.614C714.083 248.329 718.66 252.972 721.844 258.544C725.161 263.983 726.687 270.816 726.421 279.041C726.289 284.48 724.829 290.185 722.043 296.155C719.257 302.125 715.211 307.697 709.904 312.871C704.598 317.912 698.097 322.025 690.402 325.209C682.708 328.393 673.952 329.985 664.134 329.985C657.899 329.985 651.465 329.454 644.831 328.393C638.198 327.332 631.896 325.673 625.926 323.418C620.089 321.163 614.915 318.178 610.404 314.463C606.424 311.014 603.572 306.702 601.847 301.528C600.255 296.354 599.924 291.18 600.852 286.006C601.781 280.699 604.103 276.189 607.817 272.474C611.665 268.759 616.971 266.703 623.737 266.305C622.411 270.285 623.14 274.199 625.926 278.046C628.845 281.761 633.157 284.945 638.861 287.598C644.566 290.119 650.801 291.644 657.567 292.175C664.599 292.706 670.701 292.44 675.875 291.379C681.182 290.318 684.101 288.129 684.631 284.812C685.295 280.832 684.499 277.648 682.243 275.26C679.988 272.872 676.87 271.081 672.89 269.887C668.91 268.56 664.599 267.499 659.955 266.703C655.312 265.774 651 264.846 647.02 263.917C641.714 262.458 636.341 260.6 630.901 258.345C625.595 255.957 620.686 252.972 616.175 249.39C611.797 245.808 608.215 241.43 605.429 236.256C602.643 231.082 601.184 225.046 601.051 218.147C600.919 210.054 602.577 202.89 606.026 196.655C609.476 190.287 614.185 184.98 620.155 180.735C626.125 176.357 632.891 173.107 640.453 170.984C648.148 168.729 655.975 167.601 663.935 167.601ZM799.627 328.791C793.922 327.73 789.876 323.882 787.488 317.249C785.233 310.616 784.105 302.39 784.105 292.573C784.105 291.379 784.039 288.394 783.906 283.618C783.906 278.842 783.84 272.938 783.707 265.907C783.707 258.743 783.641 251.048 783.508 242.823C783.508 234.598 783.442 226.372 783.309 218.147C783.176 209.922 783.044 202.36 782.911 195.461C782.778 188.43 782.646 182.659 782.513 178.148C782.38 173.637 782.248 170.918 782.115 169.989C784.105 169.591 787.156 169.525 791.269 169.79C795.514 169.923 799.892 170.586 804.403 171.78C809.046 172.841 813.093 174.699 816.542 177.352C819.991 179.873 821.981 183.388 822.512 187.899C822.777 190.022 822.976 193.67 823.109 198.844C823.242 203.885 823.308 209.922 823.308 216.953C823.441 223.852 823.507 231.215 823.507 239.042C823.507 246.869 823.507 254.63 823.507 262.325C823.507 269.887 823.507 276.918 823.507 283.419C823.507 289.787 823.507 295.16 823.507 299.538C823.64 303.783 823.772 306.37 823.905 307.299C824.17 310.085 824.701 312.141 825.497 313.468C826.293 314.662 827.155 316.188 828.084 318.045C824.767 321.627 820.655 324.546 815.746 326.801C810.837 329.056 805.464 329.72 799.627 328.791ZM993.363 263.917C992.832 264.05 992.036 264.779 990.975 266.106C990.046 267.433 989.383 268.826 988.985 270.285C988.321 272.408 988.52 274.132 989.582 275.459C992.368 278.776 995.95 282.689 1000.33 287.2C1004.71 291.578 1009.08 295.757 1013.46 299.737C1017.97 303.717 1021.82 306.768 1025 308.891C1022.62 315.259 1018.83 320.367 1013.66 324.214C1008.62 327.929 1002.98 329.72 996.746 329.587C990.51 329.454 984.408 326.668 978.438 321.229C977.642 320.433 976.116 318.708 973.861 316.055C971.605 313.269 969.018 310.019 966.1 306.304C963.181 302.589 960.262 298.875 957.344 295.16C954.425 291.445 951.904 288.195 949.782 285.409C947.659 282.623 946.332 280.898 945.802 280.235C943.281 276.918 940.893 276.189 938.638 278.046C936.382 279.903 934.989 283.751 934.459 289.588C934.193 293.037 934.193 297.017 934.459 301.528C934.857 305.906 935.387 309.82 936.051 313.269C936.847 316.718 937.643 318.775 938.439 319.438C935.653 321.561 932.203 323.551 928.091 325.408C923.978 327.265 919.268 328.393 913.962 328.791C911.972 328.924 909.65 328.393 906.997 327.199C904.343 326.005 902.022 324.081 900.032 321.428C898.174 318.642 897.179 315.193 897.047 311.08C897.047 310.019 896.98 307.233 896.848 302.722C896.848 298.211 896.781 292.706 896.649 286.205C896.649 279.572 896.649 272.739 896.649 265.708C896.649 258.677 896.582 252.043 896.45 245.808C896.45 239.573 896.45 234.531 896.45 230.684C896.45 226.837 896.45 224.913 896.45 224.913C896.45 217.086 896.251 210.585 895.853 205.411C895.455 200.104 893.863 196.058 891.077 193.272C888.556 190.751 886.632 187.103 885.306 182.327C884.112 177.551 883.581 173.04 883.714 168.795C884.244 168.928 885.836 169.127 888.49 169.392C891.143 169.525 893.73 169.724 896.251 169.989C897.975 169.989 900.43 169.989 903.614 169.989C906.93 169.856 910.446 169.724 914.161 169.591C917.875 169.458 921.325 169.392 924.509 169.392C927.693 169.259 930.081 169.127 931.673 168.994C932.867 168.994 935.056 168.994 938.24 168.994C941.556 168.861 945.404 168.795 949.782 168.795C954.16 168.795 958.604 168.861 963.115 168.994C967.625 168.994 971.804 169.127 975.652 169.392C979.499 169.657 982.484 169.989 984.607 170.387C993.363 171.979 1000.13 174.898 1004.9 179.143C1009.68 183.388 1013.06 188.496 1015.05 194.466C1017.18 200.436 1018.44 206.937 1018.83 213.968C1019.1 219.938 1018.44 226.173 1016.84 232.674C1015.25 239.175 1012.53 245.211 1008.69 250.783C1004.84 256.355 999.731 260.733 993.363 263.917ZM934.857 221.132C934.857 225.377 935.852 228.561 937.842 230.684C939.832 232.674 941.689 233.868 943.414 234.266C945.802 234.797 948.853 234.863 952.568 234.465C956.282 233.934 959.997 233.006 963.712 231.679C967.426 230.22 970.544 228.362 973.065 226.107C975.718 223.852 977.045 221.265 977.045 218.346C977.045 214.499 975.453 211.58 972.269 209.59C969.085 207.467 965.038 206.141 960.13 205.61C955.354 205.079 950.578 205.212 945.802 206.008C942.087 206.539 939.301 208.197 937.444 210.983C935.586 213.769 934.724 217.152 934.857 221.132ZM1098.24 328.791C1092.54 327.73 1088.49 323.882 1086.1 317.249C1083.85 310.616 1082.72 302.39 1082.72 292.573C1082.72 291.379 1082.66 288.394 1082.52 283.618C1082.52 278.842 1082.46 272.938 1082.32 265.907C1082.32 258.743 1082.26 251.048 1082.12 242.823C1082.12 234.598 1082.06 226.372 1081.93 218.147C1081.79 209.922 1081.66 202.36 1081.53 195.461C1081.39 188.43 1081.26 182.659 1081.13 178.148C1081 173.637 1080.86 170.918 1080.73 169.989C1082.72 169.591 1085.77 169.525 1089.89 169.79C1094.13 169.923 1098.51 170.586 1103.02 171.78C1107.66 172.841 1111.71 174.699 1115.16 177.352C1118.61 179.873 1120.6 183.388 1121.13 187.899C1121.39 190.022 1121.59 193.67 1121.73 198.844C1121.86 203.885 1121.92 209.922 1121.92 216.953C1122.06 223.852 1122.12 231.215 1122.12 239.042C1122.12 246.869 1122.12 254.63 1122.12 262.325C1122.12 269.887 1122.12 276.918 1122.12 283.419C1122.12 289.787 1122.12 295.16 1122.12 299.538C1122.26 303.783 1122.39 306.37 1122.52 307.299C1122.79 310.085 1123.32 312.141 1124.11 313.468C1124.91 314.662 1125.77 316.188 1126.7 318.045C1123.38 321.627 1119.27 324.546 1114.36 326.801C1109.45 329.056 1104.08 329.72 1098.24 328.791ZM1313.27 187.899C1313.54 190.154 1313.67 194.002 1313.67 199.441C1313.8 204.748 1313.87 211.116 1313.87 218.545C1313.87 225.974 1313.87 233.802 1313.87 242.027C1313.87 250.252 1313.8 258.411 1313.67 266.504C1313.67 274.597 1313.6 281.96 1313.47 288.593C1313.47 295.226 1313.47 300.666 1313.47 304.911C1313.47 309.024 1313.54 311.345 1313.67 311.876C1313.94 312.937 1313.74 314.662 1313.07 317.05C1312.41 319.305 1311.35 321.494 1309.89 323.617C1308.43 325.607 1306.57 326.801 1304.32 327.199C1302.19 327.73 1299.21 327.73 1295.36 327.199C1291.65 326.801 1287.87 325.806 1284.02 324.214C1280.3 322.489 1277.32 320.035 1275.06 316.851C1273.74 314.994 1271.68 312.34 1268.9 308.891C1266.24 305.309 1263.26 301.462 1259.94 297.349C1256.76 293.104 1253.57 289.057 1250.39 285.21C1247.34 281.23 1244.75 277.847 1242.63 275.061C1240.5 272.142 1239.18 270.351 1238.65 269.688C1237.45 267.831 1235.46 265.973 1232.68 264.116C1230.02 262.126 1227.9 261.396 1226.31 261.927C1224.72 262.458 1223.52 264.116 1222.73 266.902C1221.93 269.555 1221.4 272.408 1221.14 275.459C1220.87 277.449 1220.74 280.5 1220.74 284.613C1220.74 288.593 1220.74 292.706 1220.74 296.951C1220.87 301.196 1220.87 304.646 1220.74 307.299C1220.6 311.942 1222.06 316.387 1225.12 320.632C1224.05 321.295 1221.93 322.357 1218.75 323.816C1215.56 325.143 1212.18 326.337 1208.6 327.398C1205.02 328.459 1201.96 328.924 1199.44 328.791C1195.2 328.526 1191.42 326.337 1188.1 322.224C1184.92 318.111 1183.26 313.004 1183.13 306.901C1183.13 305.707 1183.06 302.39 1182.93 296.951C1182.93 291.379 1182.86 284.48 1182.73 276.255C1182.73 268.03 1182.73 259.141 1182.73 249.589C1182.73 240.037 1182.66 230.618 1182.53 221.331C1182.53 211.912 1182.46 203.355 1182.33 195.66C1182.33 187.833 1182.33 181.597 1182.33 176.954C1182.33 172.311 1182.33 169.989 1182.33 169.989C1190.42 169.724 1197.26 170.321 1202.83 171.78C1208.4 173.239 1213.04 175.893 1216.76 179.74C1218.35 181.199 1220.67 183.786 1223.72 187.501C1226.77 191.216 1230.09 195.461 1233.67 200.237C1237.39 204.88 1240.97 209.524 1244.42 214.167C1248 218.81 1251.12 222.923 1253.77 226.505C1256.42 229.954 1258.15 232.21 1258.95 233.271C1261.07 235.924 1263.19 238.047 1265.31 239.639C1267.57 241.098 1269.43 241.563 1270.89 241.032C1274.07 239.971 1275.66 235.526 1275.66 227.699L1275.26 169.989C1276.72 169.724 1279.24 169.657 1282.83 169.79C1286.54 169.923 1290.45 170.52 1294.57 171.581C1299.08 172.642 1303.19 174.433 1306.9 176.954C1310.62 179.475 1312.74 183.123 1313.27 187.899ZM1507.94 236.455C1509.4 237.914 1510.46 240.103 1511.12 243.022C1511.92 245.808 1512.05 248.926 1511.52 252.375C1511.12 255.294 1510.13 258.279 1508.53 261.33C1506.94 264.381 1504.55 267.035 1501.37 269.29C1498.85 271.015 1496.99 273.867 1495.8 277.847C1494.6 281.694 1493.81 285.608 1493.41 289.588C1492.88 294.099 1491.68 298.742 1489.83 303.518C1488.1 308.294 1485.38 312.539 1481.67 316.254C1478.75 319.703 1474.5 322.887 1468.93 325.806C1463.49 328.592 1456.06 329.919 1446.64 329.786C1441.34 329.653 1435.1 328.725 1427.94 327C1420.91 325.275 1413.74 322.489 1406.45 318.642C1399.28 314.662 1392.72 309.355 1386.75 302.722C1380.78 296.089 1376.2 287.863 1373.01 278.046C1369.83 268.229 1368.9 256.554 1370.23 243.022C1371.42 230.153 1374.61 219.009 1379.78 209.59C1385.09 200.171 1391.65 192.41 1399.48 186.307C1407.31 180.204 1415.73 175.627 1424.75 172.576C1433.78 169.392 1442.73 167.734 1451.62 167.601C1459.45 167.336 1466.28 168.53 1472.12 171.183C1477.95 173.836 1482.6 177.286 1486.05 181.531C1489.63 185.644 1492.02 190.088 1493.21 194.864C1494.54 199.507 1494.54 203.753 1493.21 207.6C1492.15 210.917 1490.62 213.636 1488.63 215.759C1486.78 217.882 1484.72 219.341 1482.46 220.137C1479.68 221.198 1476.83 221.397 1473.91 220.734C1470.99 219.938 1468.47 218.28 1466.35 215.759C1468.6 214.034 1469.26 212.177 1468.34 210.187C1467.54 208.064 1465.48 206.34 1462.17 205.013C1458.85 203.554 1454.6 203.023 1449.43 203.421C1445.45 203.686 1441.2 204.814 1436.69 206.804C1432.32 208.794 1428.14 211.58 1424.16 215.162C1420.31 218.744 1417.13 223.122 1414.61 228.296C1412.08 233.47 1410.69 239.374 1410.43 246.007C1410.03 255.161 1410.82 262.59 1412.81 268.295C1414.94 274 1417.72 278.311 1421.17 281.23C1424.62 284.149 1428.34 286.139 1432.32 287.2C1436.3 288.261 1440.14 288.792 1443.86 288.792C1447.04 288.792 1449.63 287.797 1451.62 285.807C1453.74 283.817 1454.6 281.429 1454.21 278.643C1453.81 275.857 1451.42 273.204 1447.04 270.683C1442.93 268.428 1440.28 266.239 1439.08 264.116C1437.89 261.993 1436.89 259.871 1436.1 257.748C1434.77 254.299 1433.64 250.584 1432.71 246.604C1431.79 242.624 1431.39 239.241 1431.52 236.455C1432.58 236.853 1435.3 237.516 1439.68 238.445C1444.06 239.241 1449.1 239.971 1454.8 240.634C1460.64 241.297 1466.15 241.695 1471.32 241.828C1476.76 241.828 1482 241.695 1487.04 241.43C1492.08 241.032 1496.46 240.435 1500.18 239.639C1504.02 238.843 1506.61 237.782 1507.94 236.455ZM1721.05 241.629C1722.38 253.967 1721.78 264.912 1719.26 274.464C1716.88 284.016 1713.09 292.308 1707.92 299.339C1702.88 306.238 1696.91 311.942 1690.01 316.453C1683.11 320.831 1675.75 324.148 1667.92 326.403C1660.23 328.526 1652.6 329.587 1645.04 329.587C1637.47 329.587 1629.78 328.592 1621.95 326.602C1614.13 324.612 1606.7 321.494 1599.66 317.249C1592.77 313.004 1586.66 307.498 1581.36 300.732C1576.18 293.966 1572.34 285.94 1569.81 276.653C1567.29 267.234 1566.7 256.355 1568.02 244.017C1569.08 233.404 1571.74 223.52 1575.98 214.366C1580.23 205.079 1585.73 197.053 1592.5 190.287C1599.27 183.388 1607.03 178.082 1615.78 174.367C1624.54 170.52 1633.89 168.729 1643.84 168.994C1644.51 168.994 1645.5 168.53 1646.83 167.601C1648.15 166.54 1649.95 165.545 1652.2 164.616C1654.46 163.687 1657.18 163.356 1660.36 163.621C1666.33 164.152 1672.63 166.606 1679.26 170.984C1685.9 175.362 1692.2 181.199 1698.17 188.496C1704.14 195.66 1709.18 203.819 1713.29 212.973C1717.41 222.127 1719.99 231.679 1721.05 241.629ZM1645.63 292.772C1650.28 292.639 1654.65 291.976 1658.77 290.782C1663.01 289.588 1666.79 287.399 1670.11 284.215C1673.43 281.031 1676.08 276.52 1678.07 270.683C1680.19 264.846 1681.32 257.35 1681.45 248.196C1681.59 241.828 1680.19 235.659 1677.27 229.689C1674.36 223.719 1670.31 218.678 1665.14 214.565C1659.96 210.32 1654.06 207.865 1647.42 207.202C1640.26 206.406 1634.16 207.136 1629.12 209.391C1624.08 211.514 1619.9 214.698 1616.58 218.943C1613.4 223.056 1610.94 227.699 1609.22 232.873C1607.49 238.047 1606.43 243.287 1606.03 248.594C1605.24 257.748 1606.1 265.244 1608.62 271.081C1611.14 276.918 1614.52 281.429 1618.77 284.613C1623.01 287.797 1627.52 289.986 1632.3 291.18C1637.21 292.374 1641.65 292.905 1645.63 292.772Z" fill="#9487FB"/>
<path d="M540.563 214.128C541.094 215.866 541.58 217.623 542.022 219.397C542.463 221.157 542.176 223.088 542.76 225.034C542.815 225.212 542.819 225.401 542.771 225.578C542.512 226.581 542.601 227.553 543.036 228.496C543.074 228.579 543.094 228.67 543.094 228.761C543.094 228.852 543.074 228.942 543.036 229.024C542.463 230.266 543.131 231.173 543.153 232.245C543.209 235.687 543.248 239.123 543.269 242.554C543.285 245.717 542.654 249.162 542.542 252.511C542.479 254.371 542.068 256.14 541.311 257.818C541.241 257.974 541.234 258.136 541.29 258.303C541.584 259.167 541.543 260.138 541.168 261.215C540.358 263.544 539.599 266.33 538.892 269.572C538.609 270.856 538.202 272.159 537.671 273.482C536.981 275.199 536.408 277.039 535.713 278.623C534.992 280.273 534.24 281.908 533.458 283.529C532.53 285.444 531.484 288.265 529.866 290.452C528.313 292.557 527.439 293.757 527.244 294.052C520.787 303.828 512.286 311.262 501.891 316.617C501.134 317.012 499.937 317.518 498.299 318.137C496.643 318.761 495.078 319.619 493.449 320.089C490.562 320.917 487.663 321.689 484.752 322.403C484.137 322.558 484.046 322.483 483.526 322.201C483.367 322.112 483.199 322.096 483.022 322.153C482.071 322.459 481.115 322.727 480.157 322.958C479.292 323.171 478.857 322.574 478.082 322.814C477.389 323.024 476.69 323.207 475.986 323.363C474.437 323.715 472.776 323.171 471.115 323.347C467.374 323.737 463.299 323.097 459.563 322.681C457.849 322.489 455.647 321.79 454.231 321.721C453.339 321.678 452.63 321.568 452.103 321.39C451.413 321.159 451.059 321.042 451.041 321.038C446.924 320.078 443.291 318.935 440.142 317.609C437.977 316.697 435.871 316.196 434.051 315.124C431.732 313.758 429.206 313.086 427.514 311.732C426.53 310.949 425.506 310.228 424.441 309.566C419.644 306.585 416.004 303.012 413.081 299.945C413.025 299.887 412.993 299.809 412.991 299.728C412.989 299.648 413.017 299.569 413.07 299.508C413.749 298.708 414.46 298.105 414.986 297.225C417.05 293.785 420.101 290.079 421.921 287.615C428.302 278.982 432.811 273.165 435.446 270.164C437.576 267.743 438.906 266.102 439.437 265.242C440.434 263.617 441.623 262.143 443.003 260.82C443.101 260.727 443.222 260.661 443.354 260.629C443.485 260.597 443.623 260.601 443.753 260.639C443.883 260.677 444 260.749 444.094 260.848C444.188 260.946 444.254 261.067 444.287 261.199C445.258 265.071 446.091 268.906 447.736 272.671C448.532 274.495 448.977 276.617 449.641 278.255C451.731 283.385 453.159 286.393 456.735 289.876C457.823 290.932 459.149 291.54 460.455 292.313C461.261 292.793 461.734 292.745 462.54 292.399C462.706 292.324 462.876 292.319 463.049 292.383C466.668 293.663 470.627 288.185 471.884 285.327C472.564 283.784 473.108 282.361 473.519 281.06C474.384 278.308 474.293 275.012 474.5 271.983C474.537 271.396 474.278 270.783 474.4 270.02C474.509 269.327 474.476 268.635 474.299 267.946C474.253 267.771 474.251 267.595 474.293 267.418C474.52 266.475 474.442 265.555 474.06 264.655C473.986 264.481 473.972 264.301 474.018 264.116C474.49 262.335 473.635 260.372 473.195 258.634C472.914 257.535 473.37 256.639 473.073 255.567C472.256 252.609 471.469 249.644 470.712 246.671C470.494 245.797 470.781 244.965 470.712 244.25C470.62 243.247 470.087 241.214 469.115 238.149C468.324 235.663 465.979 233.429 467.889 230.773C470.706 226.858 474.686 222.624 477.069 219.834C491.42 203.063 506.11 186.594 521.137 170.427C521.961 169.538 522.833 168.768 523.753 168.118C523.829 168.064 523.917 168.027 524.009 168.01C524.101 167.994 524.195 167.997 524.286 168.021C524.376 168.045 524.461 168.088 524.533 168.148C524.605 168.208 524.663 168.284 524.703 168.368C525.969 171.021 527.345 173.647 528.831 176.246C529.638 177.659 529.998 179.323 530.789 180.838C531.633 182.464 531.861 184.187 532.768 185.792C533.66 187.366 533.723 189.334 534.737 190.624C535.098 191.083 535.317 191.46 535.395 191.755C537.181 198.571 538.977 205.383 540.781 212.192C540.945 212.81 540.882 213.109 540.606 213.637C540.524 213.794 540.51 213.957 540.563 214.128Z" fill="#9487FB"/>
<path d="M253.214 234.01C253.93 235.445 253.214 236.671 253.14 237.845C253.058 239.146 252.876 240.435 252.593 241.711C252.552 241.885 252.567 242.066 252.635 242.229C253.028 243.183 252.651 244.058 252.662 244.911C252.683 246.554 251.962 247.621 252.508 249.242C252.565 249.409 252.559 249.574 252.492 249.738C252.252 250.335 252.218 250.949 252.391 251.578C252.439 251.759 252.416 251.952 252.328 252.117C252.02 252.682 252.018 253.251 252.322 253.823C252.407 253.983 252.436 254.15 252.407 254.324C252.248 255.384 252.147 256.444 252.105 257.503C252.062 258.468 252.36 259.188 252.625 260.106C252.678 260.284 252.678 260.463 252.625 260.644C252.342 261.59 252.404 262.52 252.811 263.434C252.883 263.596 252.896 263.779 252.848 263.951C252.365 265.583 252.959 266.858 253.453 268.378C253.516 268.566 253.504 268.749 253.416 268.927L253.161 269.45C253.079 269.617 253.064 269.791 253.113 269.972C253.877 272.891 254.654 275.807 255.442 278.719C255.651 279.483 256.077 280.55 256.721 281.919C257.401 283.375 257.565 284.905 258.557 286.132C261.009 289.151 263.906 291.785 268.464 291.503C269.03 291.467 269.6 291.483 270.173 291.551C270.35 291.568 270.512 291.531 270.661 291.439C272.189 290.473 273.914 290.26 275.129 288.665C276.285 287.151 277.883 285.508 278.615 283.753C278.679 283.6 278.686 283.448 278.636 283.295C278.217 282.052 279.066 281.199 279.602 280.153C279.842 279.684 280.009 279.078 280.101 278.335C280.249 277.119 280.79 275.929 280.992 274.82C281.19 273.764 281.408 272.781 281.645 271.871C281.678 271.742 281.747 271.624 281.844 271.533C281.941 271.442 282.062 271.381 282.193 271.357C282.323 271.333 282.458 271.347 282.581 271.397C282.704 271.448 282.81 271.532 282.886 271.642L308.542 307.865C308.614 307.966 308.653 308.086 308.655 308.211C308.657 308.335 308.621 308.458 308.553 308.564C308.012 309.385 307.334 310.096 306.52 310.697C303.223 313.132 299.873 315.492 296.47 317.774C293.817 319.55 291.063 320.734 288.177 322.019C285.932 323.022 283.353 323.166 281.215 324.27C279.878 324.958 278.769 325.993 277.161 325.342C277.012 325.285 276.862 325.276 276.71 325.315L270.916 326.803C270.749 326.846 270.588 326.832 270.433 326.761C269.424 326.302 268.841 326.889 267.864 326.467C267.702 326.398 267.521 326.377 267.344 326.409C266.522 326.574 265.625 327.043 264.819 326.766C264.677 326.716 264.55 326.69 264.437 326.686C261.147 326.558 257.867 326.558 254.615 325.891C250.232 324.99 246.008 324.121 241.88 322.302C238.022 320.595 234.233 319.187 230.53 316.665C229.302 315.826 227.758 314.738 225.897 313.401C217.662 307.481 211.565 300.233 206.004 292.404C203.229 288.495 201.404 284.575 198.862 279.332C198.632 278.859 198.223 277.865 197.636 276.351C197.106 274.975 196.31 273.78 195.944 272.399C194.511 267.012 193.082 261.624 191.656 256.234C191.258 254.735 191.667 253.327 191.189 251.919C190.804 250.796 190.722 249.642 190.945 248.458C190.98 248.281 190.961 248.097 190.892 247.93C190.351 246.611 190.188 245.256 190.404 243.866C190.432 243.688 190.414 243.516 190.351 243.349C189.9 242.138 190.16 240.906 190.117 239.973C189.916 235.71 189.974 231.452 190.292 227.2C190.531 224.005 191.301 220.112 191.661 216.538C191.746 215.69 192.091 214.976 192.171 214.186C192.526 210.389 193.667 207.525 194.484 204.155C195.178 201.292 195.639 199.465 195.869 198.672C197.008 194.768 197.932 192.098 198.639 190.661C199.976 187.931 200.99 185.056 202.29 182.342C203.616 179.558 204.603 176.518 206.047 173.974C207.081 172.15 208.026 170.08 209.533 168.598C209.588 168.543 209.656 168.502 209.73 168.478C209.803 168.454 209.882 168.448 209.959 168.46C210.036 168.472 210.109 168.501 210.172 168.547C210.235 168.592 210.287 168.651 210.323 168.72C210.479 169.019 210.69 169.348 210.955 169.707C213.665 173.412 216.323 177.156 218.93 180.939C226.778 192.325 234.944 203.504 242.835 214.864C243.625 215.994 244.273 217.264 245.063 218.32C248.463 222.832 251.293 226.764 253.553 230.117C253.868 230.583 254.042 231.15 254.074 231.818C254.081 231.989 254.043 232.147 253.962 232.293L253.224 233.573C253.187 233.638 253.167 233.713 253.165 233.789C253.163 233.865 253.18 233.941 253.214 234.01Z" fill="#9487FB"/>
<path d="M461.208 256.042C459.765 258.82 458.03 260.692 454.607 259.743C453.742 259.498 453.355 259.423 453.127 258.447C452.872 257.366 452.598 256.294 452.304 255.231C452.255 255.057 452.257 254.883 452.31 254.708C452.787 253.162 452.14 252.186 451.784 250.826C451.738 250.655 451.761 250.493 451.853 250.341C452.612 249.093 453.297 247.866 454.284 246.757C455.84 245.011 457.301 243.342 458.667 241.749C458.8 241.593 458.973 241.477 459.167 241.414C459.362 241.35 459.57 241.342 459.768 241.389C459.967 241.436 460.149 241.538 460.295 241.682C460.44 241.826 460.543 242.008 460.593 242.207C461.183 244.554 461.783 246.828 462.392 249.029C462.597 249.757 462.62 250.492 462.461 251.231C462.126 252.767 461.93 254.655 461.208 256.042Z" fill="white"/>
<path d="M267.106 261.434C267.049 261.537 266.971 261.556 266.872 261.492C265.636 260.671 264.829 258.751 264.118 257.498C262.744 255.071 262.16 252.239 261.454 249.498C261.295 248.863 261.454 248.533 261.661 247.962C261.723 247.794 261.721 247.61 261.656 247.445C261.49 247.014 261.506 246.588 261.704 246.165C261.742 246.088 261.76 246.003 261.757 245.919L261.683 244.015C261.677 243.861 261.722 243.709 261.811 243.583C261.9 243.458 262.027 243.364 262.174 243.318C262.32 243.272 262.478 243.276 262.622 243.329C262.766 243.381 262.889 243.48 262.972 243.61C264.762 246.433 266.658 249.089 268.66 251.578C269.589 252.73 269.17 253.892 269.149 255.204C269.138 255.796 268.713 256.591 269.101 257.391C269.135 257.462 269.152 257.54 269.15 257.618C269.149 257.697 269.128 257.775 269.09 257.844L267.106 261.434Z" fill="white"/>
<path d="M457.096 267.508C459.08 266.986 461.479 266.698 463.076 265.332C463.21 265.219 463.364 265.179 463.538 265.215C466.329 265.77 464.45 269.524 464.981 271.663C465.538 273.897 464.673 280.148 462.975 281.855C462.898 281.933 462.805 281.993 462.702 282.031C462.6 282.07 462.49 282.085 462.381 282.076C462.272 282.068 462.166 282.035 462.071 281.981C461.976 281.927 461.893 281.853 461.829 281.764C460.527 279.944 459.507 278.073 458.767 276.153C458.276 274.873 457.722 273.62 457.106 272.394C457.025 272.23 456.99 272.058 457 271.876C457.068 271.019 456.781 270.301 456.141 269.722C456.01 269.601 455.941 269.45 455.934 269.268C455.895 268.308 456.282 267.722 457.096 267.508Z" fill="white"/>
<path d="M264.023 268.479C265.248 269.279 267.201 268.847 268.586 269.231C268.776 269.283 268.976 269.275 269.159 269.21C270.012 268.918 270.776 268.474 271.451 267.876C271.611 267.734 271.745 267.755 271.855 267.94C273.07 270.02 271.372 272.212 271.515 274.436C271.543 274.877 271.489 275.273 271.351 275.625C270.698 277.279 269.971 281.231 268.236 281.945C267.931 282.069 267.59 282.074 267.281 281.96C266.973 281.846 266.717 281.62 266.564 281.327C266.023 280.276 265.286 279.353 264.957 278.196C264.122 275.288 263.333 272.29 262.59 269.204C262.434 268.554 262.686 268.189 263.344 268.111C263.411 268.104 263.637 268.226 264.023 268.479Z" fill="white"/>
</svg>
