<svg width="1920" height="480" viewBox="0 0 1920 480" fill="none" xmlns="http://www.w3.org/2000/svg">
<rect width="1920" height="480" rx="100" fill="#202020"/>
<path d="M221.365 325.56C210.442 325.56 200.288 324.024 190.901 320.952C181.685 317.709 173.664 313.187 166.837 307.384C160.01 301.581 154.805 294.84 151.221 287.16C149.856 284.429 149.77 281.955 150.965 279.736C152.33 277.347 154.549 275.725 157.621 274.872C160.01 274.189 162.314 274.445 164.533 275.64C166.922 276.835 168.714 278.627 169.909 281.016C172.469 285.965 176.224 290.403 181.173 294.328C186.122 298.253 192.01 301.325 198.837 303.544C205.664 305.592 213.173 306.616 221.365 306.616C230.41 306.616 238.432 305.165 245.429 302.264C252.426 299.192 257.888 294.84 261.813 289.208C265.909 283.405 267.957 276.408 267.957 268.216C267.957 257.805 264.117 248.845 256.437 241.336C248.757 233.827 236.725 229.048 220.341 227C200.373 224.611 184.757 218.467 173.493 208.568C162.229 198.499 156.597 186.211 156.597 171.704C156.597 161.293 159.328 152.248 164.789 144.568C170.421 136.888 178.101 131 187.829 126.904C197.557 122.637 208.736 120.504 221.365 120.504C230.752 120.504 239.285 122.04 246.965 125.112C254.645 128.013 261.301 131.939 266.933 136.888C272.736 141.667 277.429 146.957 281.013 152.76C282.72 155.491 283.232 158.136 282.549 160.696C282.037 163.256 280.586 165.219 278.197 166.584C275.637 167.779 272.992 167.949 270.261 167.096C267.701 166.243 265.738 164.621 264.373 162.232C261.813 158.307 258.57 154.637 254.645 151.224C250.89 147.64 246.282 144.824 240.821 142.776C235.36 140.728 228.789 139.619 221.109 139.448C207.626 139.448 196.789 142.349 188.597 148.152C180.405 153.784 176.309 162.061 176.309 172.984C176.309 178.787 177.845 184.163 180.917 189.112C183.989 193.891 189.024 198.072 196.021 201.656C203.189 205.069 212.746 207.629 224.693 209.336C246.026 212.408 261.813 218.979 272.053 229.048C282.464 238.947 287.669 251.917 287.669 267.96C287.669 277.176 285.962 285.368 282.549 292.536C279.306 299.704 274.613 305.763 268.469 310.712C262.496 315.491 255.413 319.16 247.221 321.72C239.2 324.28 230.581 325.56 221.365 325.56ZM429.009 323C426.108 323 423.718 322.061 421.841 320.184C419.964 318.307 419.025 315.917 419.025 313.016V133.048C419.025 130.147 419.964 127.757 421.841 125.88C423.718 124.003 426.108 123.064 429.009 123.064C431.91 123.064 434.3 124.003 436.177 125.88C438.054 127.757 438.993 130.147 438.993 133.048V313.016C438.993 315.917 438.054 318.307 436.177 320.184C434.3 322.061 431.91 323 429.009 323ZM589.859 323C586.958 323 584.568 322.061 582.691 320.184C580.814 318.307 579.875 315.917 579.875 313.016V133.048C579.875 130.147 580.814 127.757 582.691 125.88C584.568 124.003 586.958 123.064 589.859 123.064H637.731C650.19 123.064 661.283 125.709 671.011 131C680.739 136.12 688.334 143.373 693.795 152.76C699.427 161.976 702.243 172.643 702.243 184.76C702.243 196.365 699.427 206.691 693.795 215.736C688.334 224.781 680.739 231.864 671.011 236.984C661.283 242.104 650.19 244.664 637.731 244.664H599.843V313.016C599.843 315.917 598.904 318.307 597.027 320.184C595.15 322.061 592.76 323 589.859 323ZM696.867 323C694.648 323 692.856 322.573 691.491 321.72C690.296 320.867 689.187 319.587 688.163 317.88L639.011 239.544L658.979 234.424L704.803 307.64C707.363 311.736 707.79 315.32 706.083 318.392C704.547 321.464 701.475 323 696.867 323ZM599.843 225.464H637.731C646.435 225.464 654.115 223.757 660.771 220.344C667.598 216.76 672.974 211.896 676.899 205.752C680.824 199.608 682.787 192.611 682.787 184.76C682.787 176.397 680.824 169.059 676.899 162.744C672.974 156.259 667.598 151.224 660.771 147.64C654.115 144.056 646.435 142.264 637.731 142.264H599.843V225.464ZM837.709 323C834.808 323 832.418 322.061 830.541 320.184C828.664 318.307 827.725 315.917 827.725 313.016V133.048C827.725 130.147 828.664 127.757 830.541 125.88C832.418 124.003 834.808 123.064 837.709 123.064C840.61 123.064 843 124.003 844.877 125.88C846.754 127.757 847.693 130.147 847.693 133.048V313.016C847.693 315.917 846.754 318.307 844.877 320.184C843 322.061 840.61 323 837.709 323ZM998.559 323C995.658 323 993.268 322.061 991.391 320.184C989.514 318.307 988.575 315.917 988.575 313.016V133.048C988.575 130.147 989.514 127.757 991.391 125.88C993.268 124.003 995.658 123.064 998.559 123.064C1001.63 123.064 1004.19 124.259 1006.24 126.648L1128.61 287.416V133.048C1128.61 130.147 1129.55 127.757 1131.42 125.88C1133.3 124.003 1135.69 123.064 1138.59 123.064C1141.32 123.064 1143.63 124.003 1145.5 125.88C1147.55 127.757 1148.58 130.147 1148.58 133.048V313.016C1148.58 315.917 1147.55 318.307 1145.5 320.184C1143.63 322.061 1141.32 323 1138.59 323C1137.23 323 1135.86 322.744 1134.5 322.232C1133.13 321.72 1132.02 320.867 1131.17 319.672L1008.54 158.904V313.016C1008.54 315.917 1007.52 318.307 1005.47 320.184C1003.59 322.061 1001.29 323 998.559 323ZM1379.28 325.56C1365.46 325.56 1352.49 322.915 1340.37 317.624C1328.42 312.333 1317.84 304.995 1308.62 295.608C1299.58 286.051 1292.5 275.128 1287.38 262.84C1282.26 250.381 1279.7 237.069 1279.7 222.904C1279.7 208.909 1282.17 195.768 1287.12 183.48C1292.24 171.021 1299.32 160.099 1308.37 150.712C1317.58 141.325 1328.17 133.987 1340.11 128.696C1352.23 123.235 1365.29 120.504 1379.28 120.504C1391.57 120.504 1402.75 122.296 1412.82 125.88C1422.89 129.464 1432.61 135.181 1442 143.032C1443.54 144.227 1444.39 145.677 1444.56 147.384C1444.9 148.92 1444.73 150.456 1444.05 151.992C1443.37 153.357 1442.34 154.381 1440.98 155.064C1440.64 156.429 1439.78 157.453 1438.42 158.136C1437.05 158.819 1435.43 159.075 1433.55 158.904C1431.85 158.733 1430.14 157.965 1428.43 156.6C1421.78 150.797 1414.52 146.531 1406.67 143.8C1398.82 140.899 1389.69 139.448 1379.28 139.448C1368.19 139.448 1357.78 141.667 1348.05 146.104C1338.49 150.541 1330.04 156.6 1322.7 164.28C1315.37 171.96 1309.56 180.835 1305.3 190.904C1301.2 200.973 1299.15 211.64 1299.15 222.904C1299.15 234.509 1301.2 245.347 1305.3 255.416C1309.56 265.485 1315.37 274.36 1322.7 282.04C1330.04 289.72 1338.49 295.779 1348.05 300.216C1357.78 304.483 1368.19 306.616 1379.28 306.616C1388.67 306.616 1397.54 305.08 1405.9 302.008C1414.27 298.936 1422.2 294.499 1429.71 288.696C1431.76 286.989 1433.89 286.307 1436.11 286.648C1438.5 286.989 1440.55 288.013 1442.26 289.72C1443.96 291.427 1444.82 293.645 1444.82 296.376C1444.82 297.741 1444.65 299.021 1444.3 300.216C1443.96 301.24 1443.2 302.349 1442 303.544C1433.3 311.565 1423.57 317.283 1412.82 320.696C1402.06 323.939 1390.89 325.56 1379.28 325.56ZM1444.82 296.376L1425.36 292.28V240.824H1385.42C1382.52 240.824 1380.13 239.971 1378.26 238.264C1376.38 236.557 1375.44 234.424 1375.44 231.864C1375.44 229.304 1376.38 227.256 1378.26 225.72C1380.13 224.013 1382.52 223.16 1385.42 223.16H1434.83C1437.73 223.16 1440.12 224.099 1442 225.976C1443.88 227.683 1444.82 229.987 1444.82 232.888V296.376ZM1667.94 325.56C1653.09 325.56 1639.44 323 1626.98 317.88C1614.52 312.76 1603.69 305.592 1594.47 296.376C1585.42 287.16 1578.34 276.323 1573.22 263.864C1568.27 251.405 1565.8 237.752 1565.8 222.904C1565.8 208.227 1568.27 194.659 1573.22 182.2C1578.34 169.741 1585.42 158.904 1594.47 149.688C1603.69 140.472 1614.52 133.304 1626.98 128.184C1639.44 123.064 1653.09 120.504 1667.94 120.504C1682.62 120.504 1696.19 123.064 1708.65 128.184C1721.1 133.304 1731.94 140.472 1741.16 149.688C1750.37 158.904 1757.46 169.741 1762.41 182.2C1767.53 194.659 1770.09 208.227 1770.09 222.904C1770.09 237.752 1767.53 251.405 1762.41 263.864C1757.46 276.323 1750.37 287.16 1741.16 296.376C1731.94 305.592 1721.1 312.76 1708.65 317.88C1696.19 323 1682.62 325.56 1667.94 325.56ZM1667.94 306.616C1679.72 306.616 1690.64 304.568 1700.71 300.472C1710.78 296.205 1719.48 290.317 1726.82 282.808C1734.33 275.128 1740.13 266.253 1744.23 256.184C1748.33 245.944 1750.37 234.851 1750.37 222.904C1750.37 211.128 1748.33 200.205 1744.23 190.136C1740.13 179.896 1734.33 171.021 1726.82 163.512C1719.48 155.832 1710.78 149.944 1700.71 145.848C1690.64 141.581 1679.72 139.448 1667.94 139.448C1655.99 139.448 1644.99 141.581 1634.92 145.848C1624.85 149.944 1616.06 155.832 1608.55 163.512C1601.21 171.021 1595.49 179.896 1591.4 190.136C1587.3 200.205 1585.25 211.128 1585.25 222.904C1585.25 234.851 1587.3 245.944 1591.4 256.184C1595.49 266.253 1601.21 275.128 1608.55 282.808C1616.06 290.317 1624.85 296.205 1634.92 300.472C1644.99 304.568 1655.99 306.616 1667.94 306.616Z" fill="url(#paint0_linear_4_5)"/>
<defs>
<linearGradient id="paint0_linear_4_5" x1="0" y1="0" x2="1933.99" y2="254.727" gradientUnits="userSpaceOnUse">
<stop stop-color="#7F54AA"/>
<stop offset="1" stop-color="#9B7AB1"/>
</linearGradient>
</defs>
</svg>
